<?xml version="1.0" encoding="utf-8"?>
<?xml-stylesheet type="text/xsl" href="rss1.xsl"?>
<rss version="2.0" xmlns:atom="http://www.w3.org/2005/Atom" xmlns:content="http://purl.org/rss/1.0/modules/content/" xmlns:dc="http://purl.org/dc/elements/1.1/" xmlns:media="http://search.yahoo.com/mrss/">
<channel>
 <title>Getty</title>
 <link>http://www.gettyimg.com/</link>
 <atom:link href="http://www.gettyimg.com/" rel="self" type="application/rss+xml" />

 
                <item>
                <title><![CDATA[【UPSCALED】Tycho - See (Performance Cut) [4K AI Upscale | HEVC 10-bit | PCM]]]></title>
                <link><![CDATA[https://sharemania.us/threads/tycho-see-performance-cut-4k-ai-upscale-hevc-10-bit-pcm.241483/]]></link>
                <description><![CDATA[<article>
<blockquote class="messageText SelectQuoteContainer ugc baseHtml">
<b><img src="https://images2.imgbox.com/ac/e8/9CBipl7y_o.jpg" class="bbCodeImage LbImage" alt="[​IMG]" data-url="https://images2.imgbox.com/ac/e8/9CBipl7y_o.jpg" style=""> <br>
<br>
Genre: <span style="color: #0059b3">Electronic</span> <br>
Style: <span style="color: #0059b3">Downtempo, Ambient</span> <br>
Year: <span style="color: #0059b3">2014</span> <br>
Video Source: <span style="color: #0059b3">Vimeo, WebMaster</span><br>
Audio Source: <span style="color: #0059b3">Qobuz</span></b><br>
<br>
"<b>See</b>" is a song by American musician, record producer, composer, and songwriter Scott Hansen (born February 7, 1977), known professionally as Tycho. It's the fifth track on his third studio album Awake, released in 2014. His music blends multiple stylistic components, including downtempo guitar, analogue synthesis, and ambient elements such as breathing and found sounds of weather broadcasts and dialogue.<br>
Months after the release it was remixed into a bubbling pop song by New York duo Beacon. 2017 brought the next phase, as Beacon’s Thomas Mullarney III joined Tycho at Coachella to perform "See" (the first time the band has ever featured a vocalist). <br>
<br>
The music video of this release is not the default one. This one only features the performance of the band, presented through methods of infrared photography. They captured the thousands of scattered, IR-visible dots emitted by an array of Xbox 360 Kinect Sensors<a href="http://www.xbox.com/en-US/xbox360/accessories/kinect/KinectForXbox360" target="_blank" class="externalLink" rel="nofollow">,</a> only 'seen' through the Infrared camera, and supplemented the patterns with laser projections that bathe the image with fill light and color.<br>
<br>
<b>Release Info</b><br>
The video track is upscaled from 1080p to 4K with Topaz Video AI and encoded to HEVC 10-bit.<br>
The PCM track is lossless, downloaded from Qobuz and synced with Adobe Audition.<br>
<br>
<div class="ToggleTriggerAnchor bbCodeSpoilerContainer">
<button type="button" class="button bbCodeSpoilerButton ToggleTrigger Tooltip JsOnly" data-target="> .SpoilerTarget"><span>Spoiler: <span class="SpoilerTitle">Media Info</span></span></button>
<div class="SpoilerTarget bbCodeSpoilerText">
<div class="bbCodeBlock bbCodeCode">
<div class="type">Code:</div>
<pre>General
Unique ID                      : 278266122050694054502438851198515546435 (0xD1581B0EEE98AB646F61565C7E9E0943)
Complete name                  : Tycho - See (Performance Cut).mkv
Format                         : Matroska
Format version                 : Version 4 / Version 2
File size                      : 826 MiB
Duration                       : 5 min 19 s
Overall bit rate               : 21.7 Mb/s
Frame rate                     : 24.000 FPS
Encoded date                   : 2024-03-13 10:49:36 UTC
Writing application            : mkvmerge v82.0 ('I'm The President') 64-bit
Writing library                : libebml v1.4.5 + libmatroska v1.7.1

Video
ID                             : 1
Format                         : HEVC
Format/Info                    : High Efficiency Video Coding
Format profile                 : Main 10@L5@Main
Codec ID                       : V_MPEGH/ISO/HEVC
Duration                       : 5 min 19 s
Bit rate                       : 19.9 Mb/s
Width                          : 3 840 pixels
Height                         : 2 160 pixels
Display aspect ratio           : 16:9
Frame rate mode                : Constant
Frame rate                     : 24.000 FPS
Color space                    : YUV
Chroma subsampling             : 4:2:0
Bit depth                      : 10 bits
Bits/(Pixel*Frame)             : 0.100
Stream size                    : 760 MiB (92%)
Default                        : Yes
Forced                         : No
Color range                    : Limited
Color primaries                : BT.709
Transfer characteristics       : BT.709
Matrix coefficients            : BT.709

Audio #1
ID                             : 2
Format                         : PCM
Format settings                : Little / Signed
Codec ID                       : A_PCM/INT/LIT
Duration                       : 5 min 19 s
Bit rate mode                  : Constant
Bit rate                       : 1 411.2 kb/s
Channel(s)                     : 2 channels
Sampling rate                  : 44.1 kHz
Frame rate                     : 25.003 FPS (1764 SPF)
Bit depth                      : 16 bits
Stream size                    : 53.8 MiB (7%)
Language                       : English
Default                        : Yes
Forced                         : No

Audio #2
ID                             : 3
Format                         : AAC LC
Format/Info                    : Advanced Audio Codec Low Complexity
Codec ID                       : A_AAC-2
Duration                       : 5 min 19 s
Bit rate                       : 317 kb/s
Channel(s)                     : 2 channels
Channel layout                 : L R
Sampling rate                  : 48.0 kHz
Frame rate                     : 46.875 FPS (1024 SPF)
Compression mode               : Lossy
Stream size                    : 12.1 MiB (1%)
Language                       : English
Default                        : No
Forced                         : No
</pre>
</div></div>
</div><br>
<b>Note to the peeps @ RuTracker: Give credit if you post the work of someone else!</b><br>
- Hurby4 aka ADHDerby<br>
<br>
<div class="bbCodeBlock bbCodeVfcHH HiddenContent">
<div class="attribution type">Hidden Content:</div>
<blockquote>You must reply before you can see the hidden data contained here.</blockquote>
</div>
<div class="messageTextEndMarker">&nbsp;</div>
</blockquote>
</article>]]></description>
                <author><![CDATA[ADHDerby]]></author>
                </item>

                </channel></rss>